<svg xmlns="http://www.w3.org/2000/svg" width="78" height="78" viewBox="0 0 78 78"><defs><clipPath id="rhdua"><path fill="#fff" d="M5.236 36.081l-.517-.515 15.252-15.203L6.91 7.91l.503-.525L20.486 19.85 35.42 4.962l.517.516-14.923 14.875 3.15 3.004-.503.524-3.162-3.014zm.992 35.438l-.53-.509 13.349-13.916L4.97 43.004l.517-.517 14.066 14.079 3.749-3.909.53.509-3.76 3.92 15.376 15.389-.517.517-15.365-15.38zm35.935 1.473l-.519-.52L56.95 57.155l-3.756-3.915.528-.507 3.745 3.905 14.25-14.263.518.52-14.26 14.272 13.284 13.851-.527.507-13.274-13.84zM53.475 23.7l-.505-.527 2.896-2.76L41.133 5.725l.515-.513L56.392 19.91l13.39-12.767.506.526-13.379 12.757 15.326 15.278-.515.513-15.337-15.29zm-14.872-3.178c10.093 0 18.274 8.156 18.274 18.216s-8.181 18.217-18.274 18.217c-10.093 0-18.275-8.156-18.275-18.217 0-10.06 8.182-18.216 18.275-18.216zm0-20.402a2.19 2.19 0 0 1 2.193 2.186 2.19 2.19 0 0 1-2.193 2.185 2.19 2.19 0 0 1-2.193-2.185A2.19 2.19 0 0 1 38.603.12zm0 72.865a2.19 2.19 0 0 1 2.193 2.186 2.19 2.19 0 0 1-2.193 2.186 2.19 2.19 0 0 1-2.193-2.186 2.19 2.19 0 0 1 2.193-2.186zm36.55-36.433a2.19 2.19 0 0 1 2.192 2.186 2.19 2.19 0 0 1-2.193 2.186 2.19 2.19 0 0 1-2.193-2.186 2.19 2.19 0 0 1 2.193-2.186zm-73.1 0a2.19 2.19 0 0 1 2.194 2.186 2.19 2.19 0 0 1-2.193 2.186A2.19 2.19 0 0 1-.14 38.738a2.19 2.19 0 0 1 2.193-2.186z"/></clipPath></defs><g><g><path fill="none" stroke="#bb9c66" stroke-miterlimit="20" stroke-width="2" d="M5.236 36.081l-.517-.515 15.252-15.203L6.91 7.91l.503-.525L20.486 19.85 35.42 4.962l.517.516-14.923 14.875 3.15 3.004-.503.524-3.162-3.014zm.992 35.438l-.53-.509 13.349-13.916L4.97 43.004l.517-.517 14.066 14.079 3.749-3.909.53.509-3.76 3.92 15.376 15.389-.517.517-15.365-15.38zm35.935 1.473l-.519-.52L56.95 57.155l-3.756-3.915.528-.507 3.745 3.905 14.25-14.263.518.52-14.26 14.272 13.284 13.851-.527.507-13.274-13.84zM53.475 23.7l-.505-.527 2.896-2.76L41.133 5.725l.515-.513L56.392 19.91l13.39-12.767.506.526-13.379 12.757 15.326 15.278-.515.513-15.337-15.29zm-14.872-3.178c10.093 0 18.274 8.156 18.274 18.216s-8.181 18.217-18.274 18.217c-10.093 0-18.275-8.156-18.275-18.217 0-10.06 8.182-18.216 18.275-18.216zm0-20.402a2.19 2.19 0 0 1 2.193 2.186 2.19 2.19 0 0 1-2.193 2.185 2.19 2.19 0 0 1-2.193-2.185A2.19 2.19 0 0 1 38.603.12zm0 72.865a2.19 2.19 0 0 1 2.193 2.186 2.19 2.19 0 0 1-2.193 2.186 2.19 2.19 0 0 1-2.193-2.186 2.19 2.19 0 0 1 2.193-2.186zm36.55-36.433a2.19 2.19 0 0 1 2.192 2.186 2.19 2.19 0 0 1-2.193 2.186 2.19 2.19 0 0 1-2.193-2.186 2.19 2.19 0 0 1 2.193-2.186zm-73.1 0a2.19 2.19 0 0 1 2.194 2.186 2.19 2.19 0 0 1-2.193 2.186A2.19 2.19 0 0 1-.14 38.738a2.19 2.19 0 0 1 2.193-2.186z" clip-path="url(&quot;#rhdua&quot;)"/></g></g></svg>